{"title":"Lana Del Rey - Freak (2016 DreamPop)","uid":13491675,"size":357514415,"categoryP":"video","categoryS":"music_videos","magnet":"?xt=urn:btih:2cb043864c17a9f7d338ee41ea915cba54788a7c&amp;dn=Lana+Del+Rey+-+Freak+%282016+DreamPop%29&amp;tr=udp%3A%2F%2Ftracker.leechers-paradise.org%3A6969&amp;tr=udp%3A%2F%2Fzer0day.ch%3A1337&amp;tr=udp%3A%2F%2Fopen.demonii.com%3A1337&amp;tr=udp%3A%2F%2Ftracker.coppersurfer.tk%3A6969&amp;tr=udp%3A%2F%2Fexodus.desync.com%3A6969","seeders":1,"leechers":0,"uploader":"MeRaDil","files":1,"time":1455133547,"description":"LANA DEL REY - FREAK\r\n\r\n \nhttp://gifyu.com/images/freak.png\r\n \nhttp://gifyu.com/images/DelRey.png\r\n\r\n\r\nGeneral\r\nLana Del Rey - Freak\r\nFormat                                   : MPEG-4\r\nFormat profile                           : Base Media\r\nCodec ID                                 : isom\r\nFile size                                : 341 MiB\r\nDuration                                 : 10mn 52s\r\nOverall bit rate                         : 4 385 Kbps\r\nMusicVid name                            : Freak\r\nAlbum                                    : Honeymoon\r\nPerformer                                : Lana Del Rey\r\nGenre                                    : Dream Pop\r\nContentType                              : Music Video\r\nRecorded date                            : 2016\r\nWriting application                      : Lavf56.32.100 / MeRaDil\r\nCover                                    : Yes\r\nArtist url                               : http://lanadelrey.com/\r\nReleasetime                              : USA . february 9 . 2016\r\n\r\nVideo\r\nID                                       : 1\r\nFormat                                   : AVC\r\nFormat/Info                              : Advanced Video Codec\r\nFormat profile                           :   \r\nFormat settings, CABAC                   : Yes\r\nFormat settings, ReFrames                : 2 frames\r\nCodec ID                                 : avc1\r\nCodec ID/Info                            : Advanced Video Coding\r\nDuration                                 : 10mn 52s\r\nBit rate                                 : 4 118 Kbps\r\nWidth                                    : 1 920 pixels\r\nHeight                                   : 1 080 pixels\r\nDisplay aspect ratio                     : 16:9\r\nFrame rate mode                          : Constant\r\nFrame rate                               : 24.000 fps\r\nColor space                              : YUV\r\nChroma subsampling                       : 4:2:0\r\nBit depth                                : 8 bits\r\nScan type                                : Progressive\r\nBits/(Pixel*Frame)                       : 0.083\r\nStream size                              : 320 MiB (94%)\r\n\r\nAudio\r\nID                                       : 2\r\nFormat                                   : AAC\r\nFormat/Info                              : Advanced Audio Codec\r\nFormat profile                           : LC\r\nCodec ID                                 : 40\r\nDuration                                 : 10mn 52s\r\nBit rate mode                            : Constant\r\nBit rate                                 : 256 Kbps\r\nChannel(s)                               : 2 channels\r\nChannel positions                        : Front: L R\r\nSampling rate                            : 44.1 KHz\r\nCompression mode                         : Lossy\r\nStream size                              : 19.9 MiB (6%)","torrent":{"xt":"urn:btih:2cb043864c17a9f7d338ee41ea915cba54788a7c","amp;dn":"Lana+Del+Rey+-+Freak+%282016+DreamPop%29","amp;tr":["udp%3A%2F%2Ftracker.leechers-paradise.org%3A6969","udp%3A%2F%2Fzer0day.ch%3A1337","udp%3A%2F%2Fopen.demonii.com%3A1337","udp%3A%2F%2Ftracker.coppersurfer.tk%3A6969","udp%3A%2F%2Fexodus.desync.com%3A6969"],"infoHash":"2cb043864c17a9f7d338ee41ea915cba54788a7c","infoHashBuffer":{"type":"Buffer","data":[44,176,67,134,76,23,169,247,211,56,238,65,234,145,92,186,84,120,138,124]},"announce":[],"urlList":[]}}